<?xml version="1.0" encoding="UTF-8" standalone="no"?>
<!-- Created with Inkscape (http://www.inkscape.org/) -->

<svg
   xmlns:dc="http://purl.org/dc/elements/1.1/"
   xmlns:cc="http://creativecommons.org/ns#"
   xmlns:rdf="http://www.w3.org/1999/02/22-rdf-syntax-ns#"
   xmlns:svg="http://www.w3.org/2000/svg"
   xmlns="http://www.w3.org/2000/svg"
   xmlns:sodipodi="http://sodipodi.sourceforge.net/DTD/sodipodi-0.dtd"
   xmlns:inkscape="http://www.inkscape.org/namespaces/inkscape"
   sodipodi:docname="ships.svg"
   inkscape:version="0.48.2 r9819"
   version="1.1"
   id="svg2"
   height="10"
   width="10">
  <defs
     id="defs4" />
  <sodipodi:namedview
     id="base"
     pagecolor="#ffffff"
     bordercolor="#666666"
     borderopacity="1.0"
     inkscape:pageopacity="0.0"
     inkscape:pageshadow="2"
     inkscape:zoom="22.627417"
     inkscape:cx="8.9844188"
     inkscape:cy="10.131726"
     inkscape:document-units="px"
     inkscape:current-layer="layer1"
     showgrid="true"
     inkscape:snap-grids="false"
     inkscape:window-width="1366"
     inkscape:window-height="706"
     inkscape:window-x="-8"
     inkscape:window-y="-8"
     inkscape:window-maximized="1">
    <inkscape:grid
       type="xygrid"
       id="grid2985"
       empspacing="5"
       visible="true"
       enabled="true"
       snapvisiblegridlinesonly="true" />
  </sodipodi:namedview>
  <metadata
     id="metadata7">
    <rdf:RDF>
      <cc:Work
         rdf:about="">
        <dc:format>image/svg+xml</dc:format>
        <dc:type
           rdf:resource="http://purl.org/dc/dcmitype/StillImage" />
        <dc:title />
      </cc:Work>
    </rdf:RDF>
  </metadata>
  <g
     inkscape:label="Layer 1"
     inkscape:groupmode="layer"
     id="layer1"
     transform="translate(0,-1042.3622)">
    <path
       style="fill:#999999;fill-opacity:1;fill-rule:evenodd;stroke:none"
       d="m 1.75,1042.4872 c 1.2678159,0 3.125,0.125 3.125,0.125 l 0,0.5 c 0,0 -1.8707544,0.125 -3.125,0.125 -0.79270799,0 -1.625,-0.375 -1.625,-0.375 0,0 0.83942518,-0.3766 1.625,-0.375 z"
       id="rect2987"
       inkscape:connector-curvature="0"
       sodipodi:nodetypes="cccccc" />
    <text
       xml:space="preserve"
       style="font-size:20px;font-style:normal;font-weight:normal;line-height:125%;letter-spacing:0px;word-spacing:0px;fill:#000000;fill-opacity:1;stroke:none;font-family:Sans"
       x="0.39459088"
       y="1041.9608"
       id="text2990"
       sodipodi:linespacing="125%"><tspan
         sodipodi:role="line"
         id="tspan2992"
         x="0.39459088"
         y="1041.9608"
         style="font-size:0.5px">aircraft carrier</tspan></text>
    <path
       style="fill:#cccccc;fill-opacity:1;fill-rule:evenodd;stroke:none"
       d="m 1.75,1042.5938 c -0.5551927,0 -0.683271,0.1099 -0.78216991,0.2812 0.11197061,0.112 0.22130171,0.2812 0.78216991,0.2812 1.1942916,0 2.8826073,-0.1152 3.03125,-0.125 l 0,-0.3124 c -0.1475947,-0.01 -1.8238996,-0.125 -3.03125,-0.125 z"
       id="path3041"
       inkscape:connector-curvature="0"
       sodipodi:nodetypes="scsccs" />
    <path
       style="fill:#999999;fill-opacity:1;fill-rule:evenodd;stroke:none"
       d="m 1.5,1045.4872 c 1.2678159,0 2.1796875,0 2.1796875,0 0.3020834,0.1667 0.3020833,0.5833 0,0.75 0,0 -0.9254419,0 -2.1796875,0 -0.79270799,0 -1.375,-0.375 -1.375,-0.375 0,0 0.58942518,-0.3766 1.375,-0.375 z"
       id="rect2987-7"
       inkscape:connector-curvature="0"
       sodipodi:nodetypes="cccccc" />
    <path
       style="fill:#cccccc;fill-opacity:1;fill-rule:evenodd;stroke:none"
       d="m 1.6674333,1045.5938 c -0.6413032,0 -0.7768083,0.2812 -0.7768083,0.2812 0,0 0.1372433,0.2812 0.7768083,0.2812 l 2.0200667,0 c 0.099392,-0.071 0.15625,-0.176 0.15625,-0.2812 0,-0.1052 -0.056858,-0.2104 -0.15625,-0.2812 z"
       id="path3072"
       inkscape:connector-curvature="0"
       sodipodi:nodetypes="scscscs" />
  </g>
</svg>
